<?xml version="1.0" encoding="iso-8859-1"?>
<!-- Generator: Adobe Illustrator 19.0.0, SVG Export Plug-In . SVG Version: 6.00 Build 0)  -->
<svg version="1.1" id="Capa_1" xmlns="http://www.w3.org/2000/svg" xmlns:xlink="http://www.w3.org/1999/xlink" x="0px" y="0px"
	 viewBox="0 0 512 512" style="enable-background:new 0 0 512 512;" xml:space="preserve">
<rect x="411.879" y="40.122" transform="matrix(-0.7071 0.7071 -0.7071 -0.7071 788.9175 -156.5378)" style="fill:#32D736;" width="30" height="89.999"/>
<rect x="70.115" y="351.879" transform="matrix(-0.7071 0.7071 -0.7071 -0.7071 447.1486 668.5415)" style="fill:#FCBF29;" width="30" height="149.999"/>
<rect x="74.136" y="438.407" transform="matrix(0.7071 0.7071 -0.7071 0.7071 353.3044 53.8619)" style="fill:#10BB67;" width="74.999" height="30"/>
<rect x="420.288" y="86.025" transform="matrix(-0.7071 -0.7071 0.7071 -0.7071 684.4512 485.5587)" style="fill:#FCBF29;" width="45" height="30"/>
<rect x="263.385" y="128.607" transform="matrix(-0.7071 0.7071 -0.7071 -0.7071 640.4169 201.9422)" style="fill:#1BD9DE;" width="30" height="209.998"/>
<rect x="220.955" y="171.041" transform="matrix(-0.7071 0.7071 -0.7071 -0.7071 597.9901 304.385)" style="fill:#32D736;" width="30" height="209.998"/>
<rect x="300.5" y="218.236" transform="matrix(-0.7071 0.7071 -0.7071 -0.7071 730.0312 239.0828)" style="fill:#FCBF29;" width="30" height="104.999"/>
<rect x="220.584" y="298.163" transform="matrix(0.7071 0.7071 -0.7071 0.7071 301.4235 -101.3758)" style="fill:#15B7BE;" width="104.999" height="30"/>
<path style="fill:#FD4E26;" d="M214.75,212.397c-28.637,28.637-39.456,72.55-25.668,110.521c0.425,1.696,0.848,3.394,1.697,5.09
	c21.85,51.125,8.253,112.239-31.203,151.695l-23.546,23.546c-11.668,11.668-30.759,11.667-42.426,0
	c-11.667-11.667-11.668-30.758,0-42.426l23.546-23.546c17.183-17.183,27.172-43.295,23.779-66.205
	c-0.849-6.787-2.545-13.152-5.305-19.728c-26.303-61.518-10.605-134.068,36.7-181.373s119.855-63.003,181.373-36.7
	c6.576,2.759,12.941,4.455,19.728,5.305c22.911,3.394,46.669-4.243,63.852-21.426l23.546-23.546
	c11.668-11.668,30.759-11.667,42.426,0c11.667,11.667,11.668,30.758,0,42.426l-23.546,23.546
	c-39.456,39.456-98.217,50.7-149.342,28.85c-1.696-0.849-3.394-1.273-5.09-1.697C287.3,172.941,243.388,183.76,214.75,212.397z"/>
<g>
	<path style="fill:#FD3018;" d="M503.249,136.03l-23.546,23.546c-39.456,39.456-98.217,50.7-149.342,28.85
		c-1.696-0.849-3.394-1.273-5.09-1.697l48.153-48.153c22.911,3.394,46.669-4.243,63.852-21.426l23.546-23.546
		c11.668-11.668,30.759-11.667,42.426,0C514.916,105.271,514.918,124.362,503.249,136.03z"/>
	<path style="fill:#FD3018;" d="M159.576,479.703l-23.546,23.546c-11.668,11.668-30.759,11.667-42.426,0
		c-11.667-11.667-11.668-30.758,0-42.426l23.546-23.546c17.183-17.183,27.172-43.295,23.779-66.205l48.153-48.153
		c0.425,1.696,0.848,3.394,1.697,5.09C212.629,379.132,199.033,440.247,159.576,479.703z"/>
</g>
<path style="fill:#1DE8F1;" d="M342.029,339.676c-47.305,47.305-119.855,63.003-181.373,36.7
	c-6.576-2.759-12.941-4.455-19.728-5.305c-22.911-3.394-49.023,6.596-66.205,23.779l-23.546,23.546
	c-11.668,11.668-30.759,11.667-42.426,0s-11.668-30.758,0-42.426l23.546-23.546c39.456-39.456,100.57-53.053,151.695-31.203
	c1.696,0.849,3.394,1.273,5.09,1.697c37.971,13.788,81.884,2.969,110.521-25.668s39.456-72.55,25.668-110.521
	c-0.425-1.696-0.848-3.394-1.697-5.09c-21.85-51.125-10.607-109.886,28.85-149.342L375.97,8.751
	c11.668-11.668,30.759-11.667,42.426,0s11.668,30.758,0,42.426L394.85,74.723c-17.183,17.183-24.819,40.941-21.426,63.852
	c0.849,6.787,2.545,13.152,5.305,19.728C405.032,219.821,389.334,292.371,342.029,339.676z"/>
<path style="fill:#1BD9DE;" d="M342.029,339.676c-47.305,47.305-119.855,63.003-181.373,36.7
	c-6.576-2.759-12.941-4.455-19.728-5.305l48.153-48.153c37.971,13.788,81.884,2.969,110.521-25.668s39.456-72.55,25.668-110.521
	l48.153-48.153c0.849,6.787,2.545,13.152,5.305,19.728C405.032,219.821,389.334,292.371,342.029,339.676z"/>
<g>
</g>
<g>
</g>
<g>
</g>
<g>
</g>
<g>
</g>
<g>
</g>
<g>
</g>
<g>
</g>
<g>
</g>
<g>
</g>
<g>
</g>
<g>
</g>
<g>
</g>
<g>
</g>
<g>
</g>
</svg>
